<svg width="27" height="10" viewBox="0 0 27 10" fill="none" xmlns="http://www.w3.org/2000/svg">
<path d="M6.0312 0.000132369C4.12864 0.00258203 2.68193 0.456748 1.15523 0.92157C0.67645 1.01313 0.298374 1.16592 0.0995656 1.56277C-0.100489 1.96231 0.0387902 2.37434 0.186622 2.65825C0.459517 3.18217 0.886814 3.66935 1.05311 3.98738C1.24937 5.07821 1.50992 6.15202 1.92917 7.09232C2.66437 8.74143 4.0161 9.97348 6.16023 9.86006C8.81378 9.71982 10.3149 8.62703 11.1165 7.33569C11.918 6.04423 12.0551 4.60328 12.2232 3.87653C12.6544 2.85747 13.5417 2.84535 13.985 3.87653C14.1531 4.60328 14.2901 6.04423 15.0918 7.33563C15.8932 8.62697 17.3944 9.71976 20.048 9.86C22.1921 9.97348 23.5439 8.74142 24.2791 7.09238C24.6984 6.15202 24.9587 5.07815 25.1551 3.98744C25.3214 3.66929 25.7487 3.18211 26.0217 2.65825C26.1695 2.37434 26.3087 1.96231 26.1087 1.56283C25.9098 1.16599 25.5318 1.01313 25.0529 0.921632C23.5262 0.456809 22.0795 0.00258159 20.177 7.06944e-05C18.6545 -0.00195027 16.84 0.285211 14.458 1.08729L14.146 1.19232C13.104 1.39221 13.1041 1.39221 12.0621 1.19232L11.7503 1.08729C9.36818 0.285211 7.55364 -0.00194977 6.03126 9.95383e-06L6.0312 0.000132369ZM6.03947 1.01368C7.38695 1.0149 9.00036 1.27983 11.1534 1.97958C11.2916 2.37213 11.4476 3.0461 11.2734 3.71295C11.081 4.58234 10.9421 5.75291 10.319 6.7569C9.67602 7.79286 8.5521 8.69396 6.11344 8.82294C4.2985 8.91897 3.42681 8.06024 2.7943 6.64152C2.43293 5.83129 2.19255 4.83716 2.00235 3.78767L2.00445 3.78706L1.77505 1.81141C3.15878 1.38719 4.41507 1.01221 6.03953 1.01368H6.03947ZM20.1686 1.01368C21.793 1.01227 23.0495 1.38713 24.4332 1.81141L24.2038 3.78706L24.2059 3.78767C24.0157 4.83716 23.7752 5.83129 23.414 6.64152C22.7814 8.06024 21.9097 8.91897 20.0948 8.82294C17.6561 8.6939 16.5321 7.79286 15.8891 6.7569C15.2661 5.75297 15.1273 4.58234 14.9348 3.71295C14.7873 2.8993 14.9166 2.37213 15.0546 1.97958C17.2077 1.27983 18.821 1.0149 20.1686 1.01368ZM6.19053 1.65855C5.13911 1.66284 4.03858 1.86279 3.13533 2.37213C2.40637 4.94587 3.33443 6.29159 4.04158 7.27145C4.11618 4.96491 3.18478 2.26864 9.47908 2.37213C8.81299 1.97137 7.54231 1.65316 6.19053 1.65867V1.65855ZM19.3244 1.65855C18.2729 1.66284 17.1725 1.86279 16.2692 2.37213C15.5402 4.94587 16.4683 6.29159 17.1754 7.27145C17.25 4.96491 16.3187 2.26864 22.6129 2.37213C21.9468 1.97137 20.6762 1.65316 19.3244 1.65867V1.65855Z" fill="black"/>
</svg>
