<svg width="23" height="22" viewBox="0 0 23 22" fill="none" xmlns="http://www.w3.org/2000/svg">
<path d="M22.3572 6.10134C22.2942 6.01178 22.2105 5.93868 22.1133 5.8882C22.0161 5.83772 21.9082 5.81133 21.7987 5.81126H7.20785L6.10338 2.00251C5.67026 0.502727 4.64105 0.34082 4.21892 0.34082H1.27402C0.896559 0.34082 0.591309 0.646414 0.591309 1.02351C0.591309 1.4006 0.896902 1.70617 1.274 1.70617H4.21856C4.31172 1.70617 4.596 1.70617 4.78989 2.37614L8.58936 16.3396C8.67186 16.6342 8.94033 16.8377 9.24659 16.8377H18.5272C18.8152 16.8377 19.0723 16.6572 19.1696 16.386L22.4408 6.7249C22.5161 6.51556 22.4848 6.2825 22.3572 6.10134H22.3572ZM18.0467 15.4727H9.76477L7.59158 7.17698H20.828L18.0467 15.4727ZM16.6927 18.2213C15.7433 18.2213 14.974 18.9906 14.974 19.9401C14.974 20.8895 15.7433 21.6588 16.6927 21.6588C17.6421 21.6588 18.4115 20.8895 18.4115 19.9401C18.4115 18.9906 17.6421 18.2213 16.6927 18.2213ZM10.5052 18.2213C9.55577 18.2213 8.78646 18.9906 8.78646 19.9401C8.78646 20.8895 9.55577 21.6588 10.5052 21.6588C11.4546 21.6588 12.224 20.8895 12.224 19.9401C12.224 18.9906 11.4546 18.2213 10.5052 18.2213Z" fill="black"/>
</svg>
