<svg width="230" height="92" viewBox="0 0 230 92" fill="none" xmlns="http://www.w3.org/2000/svg">
<path d="M19.9907 27.8522C14.5353 37.3043 10.0314 45.307 10.0314 45.6851C10.0314 46.0632 14.5353 54.0659 19.9907 63.518L30.0134 80.6577H50.376H70.802L73.2125 76.5618C75.8768 72.0248 75.9402 71.8358 74.6715 71.8358C74.1641 71.8358 72.8319 73.4111 71.7535 75.3016L69.7236 78.7673L50.3125 78.6413L30.9015 78.4522L21.5765 62.3837C16.3749 53.5618 12.1882 46.0002 12.1882 45.6851C12.1247 45.307 16.3749 37.8084 21.5131 28.9865L30.9015 12.918L50.3125 12.729L69.7236 12.6029L71.817 16.1947C74.3544 20.7317 74.1641 20.5426 74.9887 19.7235C75.4962 19.2194 74.9887 17.8331 73.276 14.8714L70.8654 10.7125H50.4394H30.0134L19.9907 27.8522Z" fill="black"/>
<path d="M88.881 32.6415C88.881 33.4606 88.0563 34.0278 85.7092 34.5949C82.1569 35.4771 80.2538 37.4305 79.6195 40.7072C78.7314 45.3072 81.6494 49.4031 86.2801 50.1593C88.5004 50.5374 88.881 50.7894 88.881 52.0497C88.881 52.9949 89.2616 53.562 89.8325 53.562C90.4034 53.562 90.784 52.9949 90.784 52.0497C90.784 50.7894 91.1646 50.5374 93.3849 50.1593C95.161 49.8442 96.7469 49.025 98.1425 47.6387C99.9821 45.8113 100.299 45.0552 100.299 42.5976C100.299 40.9593 99.8552 38.8168 99.3477 37.8716C98.4596 36.0442 94.5267 34.0278 92.0527 34.0278C91.2281 34.0278 90.784 33.5867 90.784 32.7675C90.784 32.0743 90.34 31.5072 89.8325 31.5072C89.325 31.5072 88.881 32.0113 88.881 32.6415ZM88.881 42.2195C88.881 48.1428 88.8175 48.5209 87.6123 48.5209C85.7727 48.5209 82.7912 46.8826 82.2837 45.6853C82.0934 45.1182 81.9031 43.4168 81.9031 41.9675C81.9031 38.5648 84.2502 36.1072 87.8026 35.9812C88.7541 35.9182 88.881 36.6113 88.881 42.2195ZM95.6685 37.1154C100.553 40.1401 97.9522 48.5209 92.0527 48.5209C90.8475 48.5209 90.784 48.1428 90.784 42.2195C90.784 36.1072 90.8475 35.9182 92.243 35.9182C93.0042 35.9182 94.5267 36.4853 95.6685 37.1154Z" fill="black"/>
<path d="M154.346 32.8303C150.096 33.7125 147.875 37.1782 147.875 42.9755C147.875 47.5755 149.271 50.4111 152.252 51.9864C155.678 53.6878 161.831 52.6796 161.831 50.4111C161.831 49.3399 161.704 49.2769 160.118 50.159C157.644 51.4193 154.663 51.2303 152.76 49.781C149.588 47.3234 149.271 38.6906 152.189 35.7289C153.711 34.2796 158.786 33.9015 160.055 35.1618C161.197 36.296 161.831 36.107 161.831 34.6577C161.831 33.4604 161.133 33.1453 157.391 32.5152C156.883 32.4522 155.488 32.5782 154.346 32.8303Z" fill="black"/>
<path d="M23.7967 38.5016C22.6549 39.7619 22.6549 42.4084 23.8602 46.4413C25.3192 51.2934 26.2707 51.8605 33.8829 52.1756C39.8458 52.4276 40.4801 52.3016 42.1294 51.0413C43.0809 50.2852 44.4131 48.5838 44.984 47.3235C45.9989 45.181 46.2527 45.055 49.1707 45.055C52.2156 45.055 52.3424 45.118 53.9917 47.8906C56.3388 51.8605 57.6075 52.3646 64.9025 52.1756C72.5782 51.9235 73.6566 51.1673 75.2424 44.6139C77.0186 37.4934 78.6679 37.9345 49.361 37.6824C27.5394 37.4934 24.6214 37.6194 23.7967 38.5016ZM44.8571 40.518C45.3646 41.9043 42.6369 48.3947 41.1145 49.466C39.7189 50.4742 33.1217 50.7893 29.3156 50.0331C26.905 49.529 25.6998 47.5126 25.0654 42.9756L24.6214 39.6989H34.5807C42.3197 39.6989 44.6034 39.8879 44.8571 40.518ZM51.835 40.7071C51.6446 41.2742 51.4543 41.9673 51.4543 42.2824C51.4543 42.5975 50.5028 42.8495 49.2976 42.8495C47.5214 42.8495 47.1408 42.5975 46.887 41.2742C46.5699 39.7619 46.6967 39.6989 49.361 39.6989C51.7081 39.6989 52.1521 39.8879 51.835 40.7071ZM73.9103 40.203C74.4178 41.0221 72.6416 47.9536 71.6266 48.9619C70.5483 49.9701 62.8092 50.7893 59.4471 50.1591C57.6075 49.781 56.9097 49.2139 55.8314 47.0715C53.8649 43.2906 53.3574 41.2112 54.182 40.392C55.0067 39.5728 73.4028 39.3838 73.9103 40.203Z" fill="black"/>
<path d="M108.102 38.2494C107.341 38.3755 105.945 39.3837 104.993 40.5179C103.534 42.2823 103.344 42.8494 103.598 46.2522C103.852 49.3398 104.169 50.222 105.628 51.4823C110.385 55.5152 116.792 51.1042 115.968 44.2357C115.524 39.9508 112.225 37.4933 108.102 38.2494ZM112.733 41.2741C113.811 42.9124 114.128 46.5672 113.367 48.8987C112.796 50.7261 110.195 51.7974 108.292 51.0412C106.706 50.4741 105.374 47.5755 105.374 44.7398C105.374 40.3919 110.576 37.9974 112.733 41.2741Z" fill="black"/>
<path d="M119.964 45.6851C119.964 51.7344 120.154 52.9316 120.916 52.9316C121.677 52.9316 121.867 51.7974 121.867 46.6933C121.867 43.2275 122.057 40.0138 122.248 39.4467C122.502 38.6905 122.248 38.4385 121.296 38.4385C120.028 38.4385 119.964 38.7536 119.964 45.6851Z" fill="black"/>
<path d="M125.863 41.5892C124.341 43.2275 123.136 44.8029 123.136 45.0549C123.136 46.0001 129.099 52.9316 129.86 52.9316C131.382 52.9316 130.811 51.6714 127.893 48.2686L125.102 44.9919L127.957 41.7152C130.177 39.1947 130.558 38.4385 129.67 38.4385C129.035 38.5015 127.322 39.8878 125.863 41.5892Z" fill="black"/>
<path d="M132.651 38.7534C132.651 38.9425 133.793 42.0932 135.188 45.811C138.17 53.6247 138.043 54.5699 133.666 56.6493C131.7 57.5315 131.319 57.9726 132.08 58.2877C133.793 58.9178 137.536 56.9644 138.677 54.8219C139.248 53.7507 140.961 49.5918 142.484 45.6219C144.767 39.6356 145.021 38.4384 144.196 38.4384C143.435 38.4384 142.61 40.0767 141.215 44.1726C140.2 47.3233 139.185 49.9699 138.995 50.0959C138.804 50.2219 137.726 47.6384 136.521 44.3617C135.252 40.7069 134.11 38.4384 133.539 38.4384C133.032 38.4384 132.651 38.5644 132.651 38.7534Z" fill="black"/>
<path d="M163.1 39.0687C163.1 39.3837 164.115 39.6988 165.32 39.6988H167.477L167.667 46.1262C167.857 51.7344 167.984 52.6166 168.999 52.8057C169.951 52.9947 170.078 52.3646 170.078 46.3783V39.6988H172.298C173.503 39.6988 174.518 39.3837 174.518 39.0687C174.518 38.6906 172.171 38.4385 168.809 38.4385C165.447 38.4385 163.1 38.6906 163.1 39.0687Z" fill="black"/>
<path d="M177.69 45.6851C177.69 51.6084 177.88 52.9316 178.578 52.9316C179.085 52.9316 181.115 50.3481 183.018 47.1344L186.507 41.3371L186.698 47.0084C186.824 51.4823 187.078 52.6166 187.839 52.6166C188.601 52.6166 188.854 51.3563 188.981 45.496C189.108 38.8166 189.108 38.4385 187.903 38.4385C187.015 38.4385 185.683 40.0138 183.272 43.9207L179.91 49.4659L179.72 43.9207C179.593 39.6358 179.339 38.4385 178.641 38.4385C177.88 38.4385 177.69 39.7618 177.69 45.6851Z" fill="black"/>
<path d="M195.515 43.2907C195.071 46.2523 194.31 48.8989 193.548 49.9071C191.392 52.8058 192.343 54.1291 194.754 51.7345C195.896 50.6003 197.037 46.3784 197.481 41.9044C197.672 40.266 197.989 40.014 199.765 39.8249L201.795 39.6359V46.2523C201.795 51.7975 201.985 52.9318 202.747 52.9318C203.508 52.9318 203.698 51.7345 203.698 45.6852V38.4386H199.955H196.213L195.515 43.2907Z" fill="black"/>
<path d="M209.407 45.6851V52.9316H211.183C214.165 52.9316 217.59 51.6714 218.605 50.2221C220.762 47.1344 219.24 44.8659 214.672 44.2988L211.31 43.9207V41.2111C211.31 39.1947 211.057 38.4385 210.359 38.4385C209.598 38.4385 209.407 39.6358 209.407 45.6851ZM216.385 46.6303C218.542 48.7727 216.956 51.0412 213.404 51.0412C211.374 51.0412 211.31 50.9782 211.31 48.2056C211.31 45.496 211.374 45.37 213.213 45.37C214.292 45.37 215.687 45.9371 216.385 46.6303Z" fill="black"/>
</svg>
