<svg width="141" height="45" viewBox="0 0 141 45" fill="none" xmlns="http://www.w3.org/2000/svg">
<path d="M6.69751 11.3138C3.02881 17.2429 0 22.2629 0 22.5001C0 22.7372 3.02881 27.7572 6.69751 33.6863L13.4377 44.4377H27.1313H40.8676L42.4886 41.8685C44.2803 39.0225 44.323 38.9039 43.4698 38.9039C43.1285 38.9039 42.2327 39.8921 41.5075 41.0779L40.1424 43.2519L27.0886 43.1729L14.0349 43.0543L7.76399 32.9748C4.26593 27.441 1.45042 22.6977 1.45042 22.5001C1.40776 22.2629 4.26593 17.5591 7.72133 12.0253L14.0349 1.94584L27.0886 1.82725L40.1424 1.7482L41.5501 4.00126C43.2565 6.84723 43.1285 6.72865 43.6831 6.21479C44.0244 5.89857 43.6831 5.02897 42.5313 3.17118L40.9103 0.562378H27.174H13.4377L6.69751 11.3138Z" fill="black"/>
<path d="M53.0254 14.318C53.0254 14.8318 52.4709 15.1876 50.8925 15.5433C48.5035 16.0967 47.2238 17.322 46.7972 19.3775C46.1999 22.263 48.1623 24.8322 51.2764 25.3066C52.7695 25.5437 53.0254 25.7018 53.0254 26.4924C53.0254 27.0853 53.2814 27.441 53.6653 27.441C54.0493 27.441 54.3052 27.0853 54.3052 26.4924C54.3052 25.7018 54.5612 25.5437 56.0542 25.3066C57.2487 25.1089 58.3152 24.5951 59.2537 23.7255C60.4908 22.5792 60.7041 22.1048 60.7041 20.5633C60.7041 19.5356 60.4055 18.1916 60.0642 17.5987C59.467 16.4524 56.8221 15.1876 55.1584 15.1876C54.6038 15.1876 54.3052 14.9109 54.3052 14.397C54.3052 13.9622 54.0066 13.6065 53.6653 13.6065C53.324 13.6065 53.0254 13.9227 53.0254 14.318ZM53.0254 20.3261C53.0254 24.0417 52.9828 24.2789 52.1722 24.2789C50.9351 24.2789 48.9301 23.2511 48.5889 22.5001C48.4609 22.1444 48.3329 21.0771 48.3329 20.168C48.3329 18.0335 49.9113 16.492 52.3002 16.4129C52.9401 16.3734 53.0254 16.8082 53.0254 20.3261ZM57.59 17.1244C60.8747 19.0217 59.1257 24.2789 55.1584 24.2789C54.3479 24.2789 54.3052 24.0417 54.3052 20.3261C54.3052 16.492 54.3479 16.3734 55.2864 16.3734C55.7983 16.3734 56.8221 16.7291 57.59 17.1244Z" fill="black"/>
<path d="M97.0499 14.4366C94.1917 14.99 92.6986 17.164 92.6986 20.8005C92.6986 23.686 93.6371 25.4647 95.6421 26.4529C97.9457 27.5201 102.084 26.8877 102.084 25.4647C102.084 24.7927 101.998 24.7532 100.932 25.3066C99.2681 26.0972 97.2632 25.9786 95.9834 25.0694C93.8504 23.5279 93.6371 18.1126 95.5994 16.2548C96.6233 15.3457 100.036 15.1085 100.889 15.8991C101.657 16.6106 102.084 16.492 102.084 15.5829C102.084 14.8319 101.614 14.6342 99.0975 14.2389C98.7562 14.1994 97.8177 14.2785 97.0499 14.4366Z" fill="black"/>
<path d="M9.25708 17.994C8.48921 18.7845 8.48921 20.4447 9.29974 22.9744C10.2809 26.018 10.9208 26.3738 16.0399 26.5714C20.0499 26.7295 20.4765 26.6505 21.5856 25.8599C22.2255 25.3856 23.1213 24.3183 23.5053 23.5278C24.1878 22.1839 24.3585 22.1048 26.3208 22.1048C28.3684 22.1048 28.4538 22.1443 29.5629 23.8835C31.1413 26.3738 31.9945 26.69 36.9003 26.5714C42.0621 26.4133 42.7873 25.939 43.8538 21.8281C45.0482 17.3615 46.1574 17.6382 26.4488 17.4801C11.774 17.3615 9.81165 17.4406 9.25708 17.994ZM23.42 19.2588C23.7612 20.1284 21.9269 24.1998 20.9031 24.8717C19.9646 25.5042 15.528 25.7018 12.9684 25.2275C11.3474 24.9112 10.5369 23.6464 10.1103 20.8004L9.81165 18.745H16.5092C21.7136 18.745 23.2493 18.8636 23.42 19.2588ZM28.1125 19.3774C27.9845 19.7332 27.8565 20.168 27.8565 20.3656C27.8565 20.5632 27.2166 20.7213 26.4061 20.7213C25.2116 20.7213 24.9557 20.5632 24.7851 19.7332C24.5718 18.7845 24.6571 18.745 26.4488 18.745C28.0272 18.745 28.3258 18.8636 28.1125 19.3774ZM42.9579 19.0612C43.2992 19.5751 42.1047 23.9231 41.4222 24.5555C40.697 25.1879 35.4925 25.7018 33.2316 25.3065C31.9945 25.0694 31.5252 24.7136 30.8 23.3697C29.4776 20.998 29.1363 19.6936 29.6909 19.1798C30.2454 18.6659 42.6166 18.5473 42.9579 19.0612Z" fill="black"/>
<path d="M65.9512 17.8359C65.4393 17.9149 64.5008 18.5474 63.8609 19.2589C62.8797 20.3656 62.7518 20.7214 62.9224 22.8558C63.093 24.7927 63.3063 25.3461 64.2875 26.1366C67.4869 28.6664 71.7955 25.8995 71.241 21.591C70.9423 18.9031 68.7241 17.3615 65.9512 17.8359ZM69.0653 19.7332C69.7905 20.7609 70.0038 23.0535 69.4919 24.516C69.108 25.6623 67.359 26.3343 66.0792 25.8599C65.0127 25.5042 64.1169 23.6859 64.1169 21.9072C64.1169 19.1798 67.6149 17.6778 69.0653 19.7332Z" fill="black"/>
<path d="M73.9285 22.5C73.9285 26.2946 74.0564 27.0457 74.5684 27.0457C75.0803 27.0457 75.2082 26.3342 75.2082 23.1324C75.2082 20.9584 75.3362 18.9425 75.4642 18.5868C75.6348 18.1125 75.4642 17.9544 74.8243 17.9544C73.9711 17.9544 73.9285 18.152 73.9285 22.5Z" fill="black"/>
<path d="M77.8959 19.9307C76.872 20.9584 76.0615 21.9466 76.0615 22.1047C76.0615 22.6976 80.0715 27.0457 80.5834 27.0457C81.6072 27.0457 81.2233 26.2551 79.261 24.1206L77.384 22.0652L79.3036 20.0098C80.7967 18.4287 81.0527 17.9544 80.4554 17.9544C80.0288 17.9939 78.877 18.8635 77.8959 19.9307Z" fill="black"/>
<path d="M82.4603 18.1521C82.4603 18.2706 83.2282 20.247 84.1667 22.5791C86.1717 27.4805 86.0864 28.0734 83.1429 29.3778C81.8205 29.9312 81.5645 30.2079 82.0764 30.4055C83.2282 30.8008 85.7451 29.5755 86.513 28.2315C86.8969 27.5596 88.0487 24.9508 89.0725 22.4605C90.6083 18.7054 90.7789 17.9544 90.2243 17.9544C89.7124 17.9544 89.1579 18.9821 88.2194 21.5514C87.5368 23.5278 86.8543 25.1879 86.7263 25.267C86.5983 25.346 85.8731 23.7254 85.0626 21.67C84.2094 19.3774 83.4415 17.9544 83.0576 17.9544C82.7163 17.9544 82.4603 18.0335 82.4603 18.1521Z" fill="black"/>
<path d="M102.937 18.3497C102.937 18.5473 103.619 18.745 104.43 18.745H105.88L106.008 22.7768C106.136 26.2947 106.222 26.8481 106.904 26.9667C107.544 27.0852 107.629 26.69 107.629 22.9349V18.745H109.122C109.933 18.745 110.616 18.5473 110.616 18.3497C110.616 18.1125 109.037 17.9544 106.776 17.9544C104.515 17.9544 102.937 18.1125 102.937 18.3497Z" fill="black"/>
<path d="M112.749 22.5C112.749 26.2156 112.877 27.0457 113.346 27.0457C113.687 27.0457 115.052 25.425 116.332 23.4091L118.678 19.7726L118.806 23.3301C118.891 26.1365 119.062 26.848 119.574 26.848C120.086 26.848 120.257 26.0575 120.342 22.3814C120.427 18.1915 120.427 17.9544 119.617 17.9544C119.019 17.9544 118.124 18.9425 116.503 21.3932L114.242 24.8716L114.114 21.3932C114.028 18.7054 113.858 17.9544 113.388 17.9544C112.877 17.9544 112.749 18.7844 112.749 22.5Z" fill="black"/>
<path d="M124.736 20.998C124.437 22.8558 123.925 24.516 123.413 25.1484C121.963 26.9667 122.603 27.7967 124.224 26.2947C124.992 25.5832 125.76 22.9349 126.058 20.1284C126.186 19.1007 126.399 18.9426 127.594 18.824L128.959 18.7054V22.8558C128.959 26.3342 129.087 27.0457 129.599 27.0457C130.111 27.0457 130.239 26.2947 130.239 22.5001V17.9544H127.722H125.205L124.736 20.998Z" fill="black"/>
<path d="M134.078 22.5V27.0457H135.273C137.278 27.0457 139.581 26.2551 140.264 25.346C141.714 23.4091 140.69 21.9862 137.619 21.6304L135.358 21.3932V19.6936C135.358 18.4287 135.187 17.9544 134.718 17.9544C134.206 17.9544 134.078 18.7054 134.078 22.5ZM138.771 23.0929C140.221 24.4368 139.155 25.8598 136.766 25.8598C135.401 25.8598 135.358 25.8203 135.358 24.0811C135.358 22.3814 135.401 22.3024 136.638 22.3024C137.363 22.3024 138.301 22.6581 138.771 23.0929Z" fill="black"/>
</svg>
