<svg width="23" height="22" viewBox="0 0 23 22" fill="none" xmlns="http://www.w3.org/2000/svg">
<path d="M1.4812 18.5C1.4812 17.1739 2.00799 15.9021 2.94567 14.9645C3.88335 14.0268 5.15512 13.5 6.4812 13.5H16.4812C17.8073 13.5 19.0791 14.0268 20.0167 14.9645C20.9544 15.9021 21.4812 17.1739 21.4812 18.5C21.4812 19.163 21.2178 19.7989 20.749 20.2678C20.2801 20.7366 19.6442 21 18.9812 21H3.9812C3.31816 21 2.68228 20.7366 2.21343 20.2678C1.74459 19.7989 1.4812 19.163 1.4812 18.5Z" stroke="black" stroke-width="1.75" stroke-linejoin="round"/>
<path d="M11.4812 8.5C13.5523 8.5 15.2312 6.82107 15.2312 4.75C15.2312 2.67893 13.5523 1 11.4812 1C9.41013 1 7.7312 2.67893 7.7312 4.75C7.7312 6.82107 9.41013 8.5 11.4812 8.5Z" stroke="black" stroke-width="1.75"/>
</svg>
