<svg width="26" height="24" viewBox="0 0 26 24" fill="none" xmlns="http://www.w3.org/2000/svg">
<path d="M13.149 23.2246C12.9771 23.2241 12.8103 23.1667 12.6745 23.0613C8.3501 19.7013 5.37121 16.808 3.28676 13.9535C0.626763 10.3057 0.0200962 6.93796 1.48232 3.94351C2.52454 1.80462 5.51899 0.0546224 9.01898 1.07351C10.6877 1.55553 12.1437 2.58923 13.149 4.00573C14.1543 2.58923 15.6102 1.55553 17.279 1.07351C20.7712 0.0701779 23.7734 1.80462 24.8157 3.94351C26.2779 6.93796 25.6712 10.3057 23.0112 13.9535C20.9268 16.808 17.9479 19.7013 13.6234 23.0613C13.4877 23.1667 13.3208 23.2241 13.149 23.2246ZM7.02787 2.34129C6.19507 2.30888 5.36916 2.50388 4.63881 2.90537C3.90845 3.30686 3.30123 3.89967 2.88232 4.62018C1.67676 7.09351 2.22121 9.84684 4.54676 13.028C7.01821 16.2157 9.9122 19.0522 13.149 21.4591C16.3853 19.0546 19.2792 16.2208 21.7512 13.0357C24.0845 9.84684 24.6212 7.09351 23.4157 4.62796C22.6379 3.0724 20.3045 1.83573 17.7068 2.56684C16.8738 2.81301 16.1016 3.23085 15.4399 3.79346C14.7781 4.35607 14.2415 5.051 13.8645 5.83351C13.8059 5.97616 13.7063 6.09818 13.5782 6.18404C13.4501 6.26991 13.2993 6.31576 13.1451 6.31576C12.9909 6.31576 12.8401 6.26991 12.712 6.18404C12.5839 6.09818 12.4843 5.97616 12.4257 5.83351C12.0515 5.04904 11.5158 4.35249 10.8537 3.78953C10.1915 3.22656 9.41787 2.8099 8.58343 2.56684C8.07786 2.42 7.55434 2.34409 7.02787 2.34129Z" fill="black"/>
</svg>
