<svg width="17" height="17" viewBox="0 0 17 17" fill="none" xmlns="http://www.w3.org/2000/svg">
<path d="M15.3334 9.33333H9.50008V15.1667C9.50008 15.4761 9.37716 15.7728 9.15837 15.9916C8.93958 16.2104 8.64283 16.3333 8.33341 16.3333C8.024 16.3333 7.72725 16.2104 7.50846 15.9916C7.28966 15.7728 7.16675 15.4761 7.16675 15.1667V9.33333H1.33341C1.024 9.33333 0.727249 9.21042 0.508457 8.99162C0.289665 8.77283 0.166748 8.47609 0.166748 8.16667C0.166748 7.85725 0.289665 7.5605 0.508457 7.34171C0.727249 7.12292 1.024 7 1.33341 7H7.16675V1.16667C7.16675 0.857247 7.28966 0.560501 7.50846 0.341708C7.72725 0.122916 8.024 0 8.33341 0C8.64283 0 8.93958 0.122916 9.15837 0.341708C9.37716 0.560501 9.50008 0.857247 9.50008 1.16667V7H15.3334C15.6428 7 15.9396 7.12292 16.1584 7.34171C16.3772 7.5605 16.5001 7.85725 16.5001 8.16667C16.5001 8.47609 16.3772 8.77283 16.1584 8.99162C15.9396 9.21042 15.6428 9.33333 15.3334 9.33333Z" fill="black"/>
</svg>
