<?xml version="1.0" standalone="no"?>
<!DOCTYPE svg PUBLIC "-//W3C//DTD SVG 20010904//EN"
 "http://www.w3.org/TR/2001/REC-SVG-20010904/DTD/svg10.dtd">
<svg version="1.0" xmlns="http://www.w3.org/2000/svg"
 width="512.000000pt" height="512.000000pt" viewBox="0 0 512.000000 512.000000"
 preserveAspectRatio="xMidYMid meet">

<g transform="translate(0.000000,512.000000) scale(0.100000,-0.100000)"
fill="#000000" stroke="none">
<path d="M872 3489 c-181 -23 -335 -106 -442 -236 -43 -51 -100 -155 -120
-215 l-12 -38 -124 0 c-119 0 -126 -1 -149 -25 -14 -13 -25 -36 -25 -50 0 -14
11 -37 25 -50 22 -23 31 -25 128 -25 l104 0 -1 -192 c-1 -302 24 -408 99 -408
14 0 37 11 51 26 22 21 25 32 21 62 -26 177 -31 278 -19 400 14 151 31 222 77
320 66 139 194 240 345 272 155 32 603 35 805 5 318 -48 495 -195 565 -471 25
-95 27 -254 5 -339 -72 -285 -384 -569 -763 -695 -254 -84 -447 -81 -642 12
-67 33 -100 56 -160 117 -41 43 -87 92 -101 109 -33 39 -75 43 -107 9 -44 -47
-16 -112 95 -224 114 -114 279 -196 446 -223 332 -54 796 116 1090 399 208
200 307 409 307 648 l0 103 190 0 190 0 0 -103 c0 -239 99 -447 307 -648 249
-240 643 -409 953 -409 391 0 698 239 812 633 20 71 21 81 7 105 -36 66 -113
50 -138 -28 -60 -186 -123 -294 -229 -390 -231 -212 -582 -224 -964 -34 -307
152 -522 381 -583 619 -22 85 -20 244 5 339 70 276 247 423 565 471 202 30
650 27 805 -5 276 -58 429 -310 430 -706 0 -50 4 -64 23 -82 31 -30 72 -28
104 4 l26 26 -7 139 -7 139 106 0 c99 0 107 2 130 25 32 31 32 69 0 100 -23
24 -30 25 -148 25 l-124 0 -21 58 c-74 203 -240 353 -459 415 l-78 22 -1665 1
c-916 1 -1693 -2 -1728 -7z m2178 -156 c-111 -84 -204 -213 -249 -346 l-18
-52 -223 0 -223 0 -18 52 c-45 133 -138 262 -249 346 l-35 27 525 0 525 0 -35
-27z"/>
<path d="M988 2712 c-145 -144 -218 -225 -218 -238 0 -39 37 -74 78 -74 34 0
50 14 246 209 198 197 210 212 210 247 0 26 -7 42 -23 55 -50 41 -61 33 -293
-199z"/>
<path d="M1463 2717 c-189 -189 -213 -216 -213 -245 0 -42 30 -72 73 -72 29 0
55 23 245 213 187 187 212 216 212 244 0 22 -8 38 -26 52 -54 43 -63 37 -291
-192z"/>
<path d="M3473 2717 c-189 -189 -213 -216 -213 -245 0 -42 30 -72 73 -72 29 0
55 23 245 213 187 187 212 216 212 244 0 22 -8 38 -26 52 -54 43 -63 37 -291
-192z"/>
<path d="M3946 2711 c-205 -206 -218 -221 -212 -248 11 -43 35 -63 75 -63 32
0 51 16 245 209 198 197 210 212 210 247 0 26 -7 42 -23 55 -50 41 -61 34
-295 -200z"/>
</g>
</svg>
